<svg width="364" height="184" viewBox="0 0 364 184" fill="none" xmlns="http://www.w3.org/2000/svg">
<g clip-path="url(#clip0_44_650)">
<path d="M357.403 184.629H197.871C196.58 184.627 195.341 184.114 194.428 183.201C193.515 182.288 193.001 181.051 193 179.76V67.05C193.001 65.7593 193.515 64.5218 194.428 63.6092C195.341 62.6965 196.58 62.1831 197.871 62.1816H357.403C358.694 62.1831 359.933 62.6965 360.846 63.6092C361.759 64.5218 362.273 65.7593 362.274 67.05V179.76C362.273 181.051 361.759 182.288 360.846 183.201C359.933 184.114 358.694 184.627 357.403 184.629Z" fill="#C5CFD6"/>
<path d="M350.761 68.8193H204.514C203.222 68.821 201.983 69.3347 201.07 70.2477C200.156 71.1607 199.642 72.3986 199.641 73.6898V173.121C199.642 174.412 200.156 175.65 201.07 176.563C201.983 177.476 203.222 177.99 204.514 177.991H350.761C352.052 177.989 353.29 177.476 354.203 176.563C355.116 175.649 355.629 174.412 355.63 173.121V73.6898C355.629 72.399 355.116 71.1612 354.203 70.2481C353.29 69.335 352.052 68.8211 350.761 68.8193Z" fill="#F9F8FF"/>
<g clip-path="url(#clip1_44_650)">
<path fill-rule="evenodd" clip-rule="evenodd" d="M286.476 107.365C284.814 108.361 283.181 108.841 282.414 108.645C280.492 108.153 280.315 101.168 281.803 98.4137C283.29 95.6599 290.936 94.4596 291.322 99.9158C291.455 101.809 290.655 103.499 289.472 104.878L291.593 114.697H285.433L286.476 107.365Z" fill="#B28B67"/>
<path fill-rule="evenodd" clip-rule="evenodd" d="M284.236 95.4145C285.078 95.1595 286.3 95.0731 286.814 95.1316C286.521 94.4357 286.405 93.6604 286.5 92.9055C286.592 92.172 286.922 91.5474 287.227 90.8929C287.368 90.5912 287.527 90.2912 287.765 90.0605C288.007 89.8254 288.313 89.6702 288.635 89.5962C288.963 89.5204 289.307 89.5267 289.637 89.5955C289.782 89.6259 289.913 89.6921 290.056 89.7289C290.202 89.7666 290.273 89.6756 290.38 89.5842C290.636 89.3638 291.011 89.2551 291.335 89.2161C291.698 89.1725 292.075 89.2269 292.422 89.3456C292.759 89.4611 293.083 89.6486 293.327 89.9219C293.435 90.0435 293.534 90.182 293.598 90.3348C293.624 90.3975 293.629 90.4347 293.692 90.4577C293.75 90.4789 293.818 90.4796 293.878 90.4998C294.46 90.6955 294.957 91.1418 295.228 91.7149C295.386 92.0493 295.461 92.6379 295.44 93.2977C295.42 93.9575 294.82 95.6792 294.259 96.3071C293.758 96.8676 293.022 97.2375 292.312 97.3994C292.783 97.9347 293.097 98.6036 293.329 99.2839C293.581 100.023 293.737 100.791 293.795 101.573C293.85 102.316 293.855 103.102 293.679 103.83C293.515 104.51 293.164 105.068 292.578 105.422C292.31 105.584 292.021 105.706 291.731 105.818C291.445 105.927 291.158 106.034 290.858 106.096C290.29 106.212 289.637 106.192 289.2 105.743C289.042 105.582 288.869 105.378 288.754 105.181C288.713 105.11 288.688 105.063 288.738 104.994C288.798 104.911 288.895 104.847 288.972 104.782C289.413 104.411 289.686 103.916 289.755 103.327C289.824 102.73 289.663 101.959 289.078 101.698C288.357 101.377 287.562 101.746 286.921 102.09C286.648 101.135 286.089 100.274 285.211 99.8361C284.241 99.3512 283.127 99.2944 282.129 98.8784C281.869 98.77 281.605 98.6469 281.413 98.426C281.333 98.3337 281.239 98.2139 281.208 98.0918C281.166 97.9314 281.27 97.7969 281.35 97.6719C281.777 97.0089 283.394 95.6694 284.236 95.4145Z" fill="#191847"/>
<path fill-rule="evenodd" clip-rule="evenodd" d="M302.728 146.566H282.899L280.301 178.181H309.817L302.728 146.566Z" fill="#C5CFD6"/>
<path fill-rule="evenodd" clip-rule="evenodd" d="M302.728 146.566H296.629L292.979 178.181H309.817L302.728 146.566Z" fill="black" fill-opacity="0.1"/>
<path fill-rule="evenodd" clip-rule="evenodd" d="M272.004 152.83C274.232 157.524 277.714 168.919 277.714 168.919L274.758 170.26C274.758 170.26 267.258 158.282 262.674 150.094C262.888 151.937 263.105 154.013 263.307 156.194C263.785 161.362 263.307 172.528 263.05 175.753C262.889 177.78 260.116 177.355 259.857 175.748C259.813 175.475 259.635 174.52 259.368 173.093C258.061 166.099 254.64 147.795 254.634 143.313C254.631 141.509 258.178 139.889 260.292 141.15C261.744 139.611 264.493 138.724 266.072 141.266C267.075 142.883 269.46 147.471 272.004 152.83Z" fill="#B28B67"/>
<path fill-rule="evenodd" clip-rule="evenodd" d="M277.503 164.7L267.357 140.827C264.927 136.943 258.112 141.617 258.941 143.869C260.823 148.983 270.393 165.539 270.954 167.062L277.503 164.7Z" fill="#C5CFD6"/>
<path fill-rule="evenodd" clip-rule="evenodd" d="M276.184 168.694C277.198 168.112 278.519 167.602 279.21 168.545C279.244 168.592 279.274 168.637 279.299 168.68C279.646 169.277 280.112 170.538 280.112 170.538C279.414 170.938 267.575 177.728 267.575 177.728C267.575 177.728 266.153 176.403 267.132 175.671C268.11 174.94 268.747 174.437 268.747 174.437L272.625 169.129C272.956 168.676 273.598 168.585 274.046 168.927L274.338 169.15C274.338 169.15 275.575 169.043 276.184 168.694Z" fill="#E4E4E4"/>
<path fill-rule="evenodd" clip-rule="evenodd" d="M261.455 174.633C262.621 174.602 263.996 174.845 264.12 176.005C264.127 176.064 264.13 176.118 264.13 176.169C264.13 176.858 263.899 178.181 263.899 178.181C263.093 178.181 249.422 178.181 249.422 178.181C249.422 178.181 248.858 176.328 250.074 176.18C251.289 176.033 252.093 175.914 252.093 175.914L258.127 173.242C258.64 173.014 259.24 173.254 259.456 173.773L259.596 174.112C259.596 174.112 260.722 174.633 261.425 174.633C261.435 174.633 261.445 174.633 261.455 174.633Z" fill="#E4E4E4"/>
<path fill-rule="evenodd" clip-rule="evenodd" d="M253.922 145.147C253.922 151.921 257.16 167.721 257.162 169.212L264.13 169.217C264.13 169.217 262.6 148.07 263.045 147.842C263.49 147.615 281.281 149.607 286.617 149.607C294.312 149.607 297.495 144.787 297.753 135.858H282.51C279.407 136.188 263.219 139.432 257.207 140.547C254.633 141.024 253.922 143.281 253.922 145.147Z" fill="#DDE3E9"/>
<path fill-rule="evenodd" clip-rule="evenodd" d="M271.228 115.128L280.137 119.975L276.847 123.482L270.373 117.595C266.963 116.661 265.404 115.978 265.695 115.546C265.94 115.182 266.336 115.194 266.701 115.206C266.985 115.215 267.25 115.223 267.411 115.052C267.777 114.662 267.078 113.298 266.36 112.031C265.641 110.764 266.409 110.874 266.849 111.056C268.287 112.023 269.746 113.38 271.228 115.128ZM262.271 121.929L266.184 124.064L265.961 127.965C265.961 127.965 263.426 126.148 261.246 125.544C258.466 124.774 257.341 124.186 255.982 122.467C255.255 121.546 254.638 119.697 255.33 119.095C255.596 118.864 256.585 119.409 257.594 119.966C258.363 120.391 259.143 120.822 259.624 120.92C260.272 121.053 260.196 120.219 260.135 119.553C260.092 119.075 260.056 118.683 260.301 118.796C261.447 118.816 262.271 121.929 262.271 121.929Z" fill="#997659"/>
<path fill-rule="evenodd" clip-rule="evenodd" d="M284.475 118.895C281.354 118.862 277.193 118.207 272.753 115.408L271.01 119.27C274.072 122.29 278.379 124.77 282.144 124.665C285.111 124.582 286.628 121.017 284.475 118.895Z" fill="#9097E0"/>
<path fill-rule="evenodd" clip-rule="evenodd" d="M292.892 145.358C295.858 144.974 298.584 144.621 300.199 144.936C302.012 139.09 300.507 135.408 299.117 132.01C298.28 129.962 297.485 128.016 297.483 125.761C297.478 119.195 292.17 109.088 291.389 109.088H291.165H284.976H284.268C283.949 113.151 282.59 117.551 281.223 121.978C280.903 123.012 280.584 124.048 280.276 125.081C275.101 126.248 263.608 122.186 263.608 122.186C263.608 122.186 260.707 128.148 260.926 130.687C267.615 134.158 273.348 135.706 278.072 135.808C277.922 138.592 278.263 141.241 279.409 143.662C280.945 146.905 287.34 146.077 292.892 145.358Z" fill="#B4B9F3"/>
<g opacity="0.5">
<path d="M214 83C215.105 83 216 82.1046 216 81C216 79.8954 215.105 79 214 79C212.895 79 212 79.8954 212 81C212 82.1046 212.895 83 214 83Z" fill="#F86158"/>
<path d="M224 83C225.105 83 226 82.1046 226 81C226 79.8954 225.105 79 224 79C222.895 79 222 79.8954 222 81C222 82.1046 222.895 83 224 83Z" fill="#FBBF2D"/>
<path d="M234 83C235.105 83 236 82.1046 236 81C236 79.8954 235.105 79 234 79C232.895 79 232 79.8954 232 81C232 82.1046 232.895 83 234 83Z" fill="#2ACB43"/>
</g>
</g>
<path d="M208.824 155.904H5.70192C4.05764 155.902 2.48123 155.248 1.31855 154.086C0.15587 152.924 -0.498139 151.349 -0.5 149.705V6.19856C-0.498145 4.55517 0.155862 2.97962 1.31855 1.81756C2.48123 0.655511 4.05763 0.00185664 5.70192 0H208.824C210.468 0.00186136 212.045 0.65552 213.207 1.81757C214.37 2.97962 215.024 4.55517 215.026 6.19856V149.705C215.024 151.349 214.37 152.924 213.207 154.086C212.045 155.248 210.468 155.902 208.824 155.904Z" fill="#C5CFD6"/>
<path d="M200.368 8.4502H14.1608C12.5158 8.4523 10.9389 9.10634 9.77572 10.2689C8.61256 11.4314 7.95817 13.0075 7.95605 14.6515V141.251C7.95816 142.895 8.61255 144.471 9.7757 145.633C10.9389 146.796 12.5158 147.45 14.1608 147.452H200.368C202.012 147.45 203.589 146.796 204.751 145.633C205.913 144.47 206.567 142.894 206.568 141.251V14.6515C206.567 13.008 205.913 11.4319 204.751 10.2693C203.589 9.10672 202.012 8.45248 200.368 8.4502Z" fill="#F9F8FF"/>
<g clip-path="url(#clip2_44_650)">
<path fill-rule="evenodd" clip-rule="evenodd" d="M115.59 23.4492C110.868 23.4492 107.04 27.2772 107.04 31.9992V39.2373C107.04 43.5203 110.189 47.0678 114.299 47.6904C114.301 47.7254 114.303 47.7605 114.305 47.7958H125.325C127.199 45.9634 125.081 33.535 123.76 29.416C123.577 28.844 123.399 28.4299 123.224 28.1455C121.815 25.3594 118.926 23.4492 115.59 23.4492Z" fill="#191847"/>
<path fill-rule="evenodd" clip-rule="evenodd" d="M115.755 41.796C118.216 43.2803 120.634 43.9975 121.769 43.7047C124.615 42.9706 124.876 32.5516 122.674 28.4442C120.472 24.3367 109.152 22.5464 108.581 30.6846C108.383 33.5091 109.568 36.0298 111.319 38.0867L108.18 52.7313H117.3L115.755 41.796Z" fill="#D4A181"/>
<path fill-rule="evenodd" clip-rule="evenodd" d="M107.375 30.7313C107.639 30.4693 107.896 30.2158 108.15 29.9889L108.137 29.6933C108.137 29.6933 111 23.8291 115.4 23.8291C119.797 23.8291 121.187 25.8745 122.369 27.6132L122.372 27.6179C121.754 29.7407 119.891 30.5995 117.784 31.5708C116.877 31.989 115.924 32.4279 115.007 32.9975C114.647 32.7053 114.189 32.5301 113.69 32.5301C112.535 32.5301 111.6 33.4665 111.6 34.6217C111.6 35.7768 112.535 36.7132 113.69 36.7132C113.722 36.7132 113.753 36.7125 113.785 36.7111C114.205 41.2281 114.037 46.3864 112.784 47.6108H101.764C101.448 42.1104 102.87 40.5413 104.323 38.938C105.69 37.4293 107.084 35.8903 107.084 31.0175C107.182 30.9218 107.279 30.8263 107.374 30.7319L107.375 30.7314L107.375 30.7313Z" fill="#191847"/>
<path fill-rule="evenodd" clip-rule="evenodd" d="M105.14 84.2939L118.917 132.676L128.968 168.336H136.3L125.618 84.2939H105.14Z" fill="#69A1AC"/>
<path fill-rule="evenodd" clip-rule="evenodd" d="M101.456 84.2939C101.137 109.231 100.051 122.832 99.716 125.097C99.3815 127.363 94.3225 141.776 84.5391 168.336H92.1339C104.589 142.856 111.542 128.443 112.992 125.097C114.442 121.752 118.918 108.15 125.66 84.2939H101.456Z" fill="#89C5CC"/>
<path fill-rule="evenodd" clip-rule="evenodd" d="M152.823 67.1529L137.82 69.2009L140.512 75.9278L152.686 71.0977C157.933 71.6158 160.471 71.4911 160.298 70.7236C160.152 70.0765 159.595 69.8811 159.081 69.7011C158.681 69.5609 158.307 69.4301 158.176 69.1023C157.876 68.3538 159.582 66.8023 161.263 65.3998C162.944 63.9972 161.816 63.7392 161.107 63.7599C158.586 64.3512 155.825 65.4822 152.823 67.1529ZM79.8311 104.034C80.9447 101.773 90.6884 72.6763 90.6884 72.6763L99.0094 72.7075C99.0094 72.7075 85.3231 103.53 84.7369 104.983C83.9754 106.872 85.2689 109.616 86.146 111.477C86.2817 111.764 86.4074 112.031 86.514 112.27C85.297 112.815 84.7124 112.156 84.096 111.462C83.3999 110.678 82.6633 109.848 80.9293 110.655C80.2593 110.967 79.6254 111.336 79.0061 111.696C76.8667 112.94 74.9013 114.084 72.2277 112.433C71.8038 112.171 71.3394 111.186 72.4616 110.415C75.2576 108.497 79.2867 105.139 79.8311 104.034Z" fill="#D4A181"/>
<path fill-rule="evenodd" clip-rule="evenodd" d="M113.481 46.2659L119.996 46.7002C121.601 61.2275 130.341 70.4034 149.909 67.297L152.508 86.0048C134.219 88.3703 118.18 81.0426 114.892 61.2028C114.041 56.0669 113.369 50.722 113.481 46.2659Z" fill="#AFB9C5"/>
<path fill-rule="evenodd" clip-rule="evenodd" d="M80.9727 100.266C85.4961 76.1801 95.0435 57.5463 109.615 44.3643H110.24H110.261L110.267 44.3703L120.138 46.6327C120.138 58.499 122.776 67.3654 125.312 75.8897C126.407 79.5708 127.483 83.1882 128.32 86.9558H101.661C101.285 91.2723 101.054 95.709 100.934 100.266H80.9727Z" fill="#C5CFD6"/>
<path fill-rule="evenodd" clip-rule="evenodd" d="M101.661 86.9561C102.426 78.168 103.791 69.8776 106.048 62.085C105.553 70.4185 105.416 80.7567 107.079 86.9561H101.661Z" fill="black" fill-opacity="0.1"/>
<g opacity="0.5">
<path d="M20 22C21.1046 22 22 21.1046 22 20C22 18.8954 21.1046 18 20 18C18.8954 18 18 18.8954 18 20C18 21.1046 18.8954 22 20 22Z" fill="#F86158"/>
<path d="M30 22C31.1046 22 32 21.1046 32 20C32 18.8954 31.1046 18 30 18C28.8954 18 28 18.8954 28 20C28 21.1046 28.8954 22 30 22Z" fill="#FBBF2D"/>
<path d="M40 22C41.1046 22 42 21.1046 42 20C42 18.8954 41.1046 18 40 18C38.8954 18 38 18.8954 38 20C38 21.1046 38.8954 22 40 22Z" fill="#29CD41"/>
</g>
</g>
</g>
<defs>
<clipPath id="clip0_44_650">
<rect width="363" height="184" fill="white" transform="translate(0.5)"/>
</clipPath>
<clipPath id="clip1_44_650">
<rect width="156" height="109" fill="white" transform="translate(199.5 69.1816)"/>
</clipPath>
<clipPath id="clip2_44_650">
<rect width="199" height="140" fill="white" transform="translate(7.5 8.18164)"/>
</clipPath>
</defs>
</svg>
