<svg width="362" height="184" viewBox="0 0 362 184" fill="none" xmlns="http://www.w3.org/2000/svg">
<path fill-rule="evenodd" clip-rule="evenodd" d="M85.9677 40.7949C89.2055 42.8073 92.3868 43.7796 93.8801 43.3827C97.6248 42.3874 97.9691 28.2615 95.0717 22.6927C92.1743 17.1238 77.2792 14.6966 76.5284 25.7302C76.2678 29.5597 77.8272 32.9772 80.1311 35.7658L76 55.6208H88L85.9677 40.7949Z" fill="#B28B67"/>
<path fill-rule="evenodd" clip-rule="evenodd" d="M71.2967 22.0567C70.9091 21.6606 70.6977 21.0953 70.5148 20.5585C70.3249 20.0009 70.1403 19.4375 70.0142 18.8571C69.7623 17.6975 69.7599 16.3638 70.5621 15.4634C71.2056 14.7413 72.171 14.4174 73.062 14.347C73.6556 14.3001 74.2653 14.3858 74.8344 14.5787C75.399 14.7701 75.8856 15.1514 76.433 15.3882C76.4539 14.1385 76.6615 12.8309 77.2763 11.7638C77.8679 10.7371 78.8112 10.161 79.8855 10.0086C80.9881 9.85214 82.0769 10.1182 83.064 10.6686C83.3112 10.8065 83.556 10.9509 83.7903 11.1143C83.9865 11.2512 84.1904 11.4161 84.4206 11.4717C84.6773 11.5339 84.8045 11.381 84.9712 11.188C85.1668 10.9616 85.3871 10.7623 85.6202 10.5855C86.6511 9.80417 88.0037 9.48291 89.1979 9.95125C89.7482 10.167 90.2833 10.5335 90.6566 11.0385C90.9894 11.4886 91.2268 12.2026 91.6861 12.5163C91.881 12.6494 92.0186 12.473 92.1961 12.3426C92.4626 12.1468 92.7168 11.9306 92.9866 11.7401C93.3656 11.4724 93.7758 11.2722 94.2152 11.1673C94.8584 11.0139 95.7472 11.0499 95.9311 11.9185C96.0002 12.2448 95.9472 12.5938 95.9249 12.9225C95.8943 13.3739 95.8624 13.8252 95.8244 14.276C95.7955 14.6182 95.759 14.9487 95.6964 15.2848C95.663 15.464 95.5584 15.798 95.6329 15.9774C95.726 16.2016 96.1557 16.0741 96.3393 16.0819C96.7019 16.0974 97.066 16.1629 97.4013 16.3227C97.6611 16.4465 97.9343 16.6287 98.044 16.9358C98.1114 17.1244 98.0936 17.3182 98.0618 17.5123C98.0236 17.7452 98.0673 17.8687 98.0958 18.1037C98.5828 17.8565 100.27 17.3071 100.483 18.207C100.553 18.5067 100.392 18.8453 100.27 19.098C100.054 19.5413 99.7717 19.9464 99.483 20.3328C98.8807 21.1388 98.1617 21.834 97.3881 22.4286C98.2945 22.8441 98.531 24.0696 97.7463 24.7998C97.3998 25.1222 96.9339 25.194 96.4969 25.1734C96.3369 25.1658 96.1063 25.1024 95.9804 25.1312C95.9127 25.1466 95.8402 25.2058 95.7463 25.2124C95.1295 25.256 94.4332 25.1027 93.8302 24.9616C92.7558 24.7101 91.7387 24.1852 90.908 23.3858C90.695 23.1808 90.5189 23.0627 90.2321 23.0657C89.9808 23.0684 89.7342 23.1394 89.4831 23.146C88.8188 23.1635 88.2198 22.8286 87.6029 22.6056C87.5651 23.465 87.3277 24.4115 86.9868 25.1847C86.7088 25.8151 86.1283 25.9068 85.5578 25.9621C83.7335 26.1391 81.9028 25.9415 80.0762 25.9442C81.8444 26.3563 83.6715 26.5261 85.424 27.0111C86.2161 27.2303 85.6112 27.7808 85.2725 28.1625C84.7148 28.7909 84.3001 29.5696 84.0125 30.3899C83.1475 29.2273 81.6187 28.4612 80.2642 28.8184C78.7676 29.213 77.7137 31.3 78.6707 32.8003C79.2263 33.6713 80.2297 34.0075 81.0646 34.3817C80.4133 35.08 80.2557 36.1112 79.8637 36.9799C79.6704 37.4083 79.399 37.8926 78.9666 38.0419C78.8067 38.0972 78.6191 38.1019 78.4929 38.2364C78.3366 38.4028 78.2993 38.589 78.0997 38.732C77.3031 39.3031 76.0587 39.2591 75.3526 38.5138C74.7141 37.8398 74.8802 36.7732 75.4135 36.0899C74.5646 35.725 73.018 35.2557 73.3554 33.892C71.5159 33.766 67.0498 30.6898 69.5186 28.4419C68.1637 27.6523 66.9189 25.7226 67.7892 24.0215C68.4594 22.7116 70.018 22.1261 71.2967 22.0567" fill="#191847"/>
<path fill-rule="evenodd" clip-rule="evenodd" d="M54.3113 120.068H92.9386L98 184H40.5L54.3113 120.068Z" fill="#C5CFD6"/>
<path fill-rule="evenodd" clip-rule="evenodd" d="M54.3113 120.068H66.1914L73.3019 184H40.5L54.3113 120.068Z" fill="black" fill-opacity="0.1"/>
<path fill-rule="evenodd" clip-rule="evenodd" d="M114.162 132.734C109.822 142.227 103.039 165.27 103.039 165.27L108.797 167.983C108.797 167.983 123.408 143.761 132.337 127.202C131.921 130.93 131.497 135.127 131.104 139.538C130.174 149.989 131.104 172.569 131.604 179.091C131.919 183.19 137.32 182.331 137.825 179.08C137.91 178.53 138.258 176.596 138.777 173.712C141.324 159.569 147.989 122.553 148.001 113.489C148.005 109.842 141.096 106.566 136.978 109.115C134.149 106.003 128.795 104.209 125.719 109.35C123.763 112.619 119.117 121.898 114.162 132.734Z" fill="#B28B67"/>
<path fill-rule="evenodd" clip-rule="evenodd" d="M103.45 156.739L123.214 108.461C127.949 100.608 141.223 110.059 139.609 114.614C135.943 124.956 117.3 158.435 116.208 161.516L103.45 156.739Z" fill="#C5CFD6"/>
<path fill-rule="evenodd" clip-rule="evenodd" d="M104.502 163.33C103.756 162.402 102.418 162.15 101.563 162.951C100.911 163.563 100.247 164.256 99.9501 164.786C99.2739 165.994 98.3668 168.544 98.3668 168.544C99.7256 169.352 122.79 183.083 122.79 183.083C122.79 183.083 125.559 180.405 123.652 178.925C121.746 177.445 120.506 176.429 120.506 176.429L112.379 164.883C112.049 164.414 111.408 164.315 110.967 164.664L109.615 165.738C109.615 165.738 107.205 165.521 106.018 164.814C105.538 164.528 104.987 163.935 104.502 163.33Z" fill="#E4E4E4"/>
<path fill-rule="evenodd" clip-rule="evenodd" d="M132.77 176.335C131.659 175.913 130.355 176.385 130.003 177.521C129.737 178.384 129.5 179.321 129.5 179.93C129.5 181.324 129.951 184 129.951 184C131.52 184 158.152 184 158.152 184C158.152 184 159.251 180.253 156.882 179.954C154.514 179.655 152.948 179.414 152.948 179.414L140.326 173.612C139.806 173.373 139.192 173.618 138.98 174.15L138.332 175.771C138.332 175.771 136.139 176.826 134.768 176.826C134.223 176.826 133.474 176.603 132.77 176.335Z" fill="#E4E4E4"/>
<path fill-rule="evenodd" clip-rule="evenodd" d="M149.385 117.198C149.385 130.896 143.077 162.846 143.073 165.862L129.5 165.873C129.5 165.873 132.48 123.109 131.613 122.649C130.747 122.188 96.0879 126.217 85.6932 126.217C70.7039 126.217 64.5032 116.47 64 98.4141H93.6932C99.739 99.0812 131.274 105.64 142.986 107.895C148 108.86 149.385 113.425 149.385 117.198Z" fill="#DDE3E9"/>
<path fill-rule="evenodd" clip-rule="evenodd" d="M40.6996 121.567C42.1649 118.502 49.4855 79.0527 49.4855 79.0527L60.4342 79.0951C60.4342 79.0951 47.9259 120.883 47.1546 122.854C46.1527 125.415 47.8546 129.135 49.0087 131.658C49.1872 132.048 49.3527 132.409 49.4929 132.734C47.8916 133.473 47.1224 132.579 46.3114 131.638C45.3954 130.574 44.4262 129.449 42.1446 130.544C41.2631 130.967 40.429 131.467 39.614 131.955C36.7991 133.642 34.2131 135.192 30.6952 132.954C30.1375 132.599 29.5263 131.263 31.0029 130.219C34.6818 127.618 39.9833 123.065 40.6996 121.567ZM132.911 106.196L118.747 91.9477L114.043 100.341L128.771 109.296C132.465 115.294 134.634 117.886 135.278 117.072C135.822 116.384 135.573 115.631 135.343 114.938C135.165 114.397 134.998 113.893 135.227 113.484C135.75 112.55 138.707 113.085 141.493 113.716C144.278 114.348 143.633 112.937 143.041 112.201C140.409 110.01 137.032 108.009 132.911 106.196Z" fill="#B28B67"/>
<path fill-rule="evenodd" clip-rule="evenodd" d="M82.8481 47.0268L87.1716 46.2621C93.9826 71.0883 128.977 88.0108 131.125 97.2915C131.913 100.695 129.538 102.415 130.765 103.452L125.145 107.694C124.193 106.549 122.162 108.644 117.921 107.179C113.68 105.714 82.8481 76.4231 82.8481 47.0268Z" fill="#69A1AC"/>
<path fill-rule="evenodd" clip-rule="evenodd" d="M77.1515 41.9871C74.9481 41.8282 73.0407 43.4862 72.8913 45.6903L72.8176 46.7768C64.6808 53.2336 44.514 72.5277 39.2588 108.445C38.7068 112.218 39.7051 114.239 40.5027 115.853C41.0484 116.958 41.5002 117.872 41.2975 119.028L48.6523 121.121C48.6523 120.268 49.5793 119.619 50.7752 118.782C52.5141 117.565 54.8216 115.95 55.6748 112.73C56.4835 109.678 57.6678 105.866 59.0826 101.625C59.2162 107.241 60.2491 112.406 62.4992 116.684C68.1129 127.357 100.554 115.653 103.943 104.764C105.751 98.9542 103.185 94.0764 99.7911 87.625C95.4639 79.4 89.7911 68.6173 90.1236 50.0841C90.1389 49.9802 90.1502 49.8748 90.1575 49.7682L90.3486 46.949C90.4981 44.745 88.833 42.8294 86.6296 42.6705L77.1515 41.9871Z" fill="#89C5CC"/>
<path fill-rule="evenodd" clip-rule="evenodd" d="M278.032 43.0891C274.794 45.013 271.613 45.9426 270.12 45.5631C266.375 44.6116 266.031 31.1066 268.928 25.7826C271.826 20.4585 286.721 18.1379 287.472 28.6866C287.732 32.3477 286.173 35.615 283.869 38.2811L288 57.2633H276L278.032 43.0891Z" fill="#B28B67"/>
<path fill-rule="evenodd" clip-rule="evenodd" d="M288.173 28.6298C288.444 28.6592 288.72 28.6743 289 28.6743C293.142 28.6743 296.5 25.364 296.5 21.2805C296.5 17.197 293.142 13.8867 289 13.8867C284.893 13.8867 281.558 17.1403 281.501 21.1753C275.472 19.1165 267.65 21.5224 268.696 26.348C269.339 29.309 272.691 30.8538 276.113 32.4305C276.272 32.5038 276.431 32.5772 276.59 32.6508C277.118 31.7485 278.123 31.1388 279.277 31.1388C280.977 31.1388 282.355 32.463 282.355 34.0963C282.355 34.6847 282.176 35.2329 281.868 35.6936C283.073 36.7268 283.923 37.9704 284.128 39.5834C286.07 39.5834 289.209 33.9626 288.173 28.6298Z" fill="#191847"/>
<path fill-rule="evenodd" clip-rule="evenodd" d="M313.5 118.878C322.337 118.878 329.5 126.041 329.5 134.878V164C329.5 172.836 322.337 180 313.5 180H272C263.163 180 256 172.836 256 164V134.878C256 126.041 263.163 118.878 272 118.878H313.5ZM311.5 132.68C313.709 132.68 315.5 134.47 315.5 136.68V162.198C315.5 164.407 313.709 166.198 311.5 166.198H274C271.791 166.198 270 164.407 270 162.198V136.68C270 134.47 271.791 132.68 274 132.68H311.5Z" fill="#C5CFD6"/>
<path fill-rule="evenodd" clip-rule="evenodd" d="M206.421 177.536C216.278 165.668 222.949 156.87 226.431 151.142C232.393 141.333 237.273 132.605 238.813 129.271C242.486 121.321 230.359 117.598 227.614 121.306C223.46 126.919 214.589 144.581 201 174.291L206.421 177.536Z" fill="#B28B67"/>
<path fill-rule="evenodd" clip-rule="evenodd" d="M226.621 174.085L244.967 128.557C248.891 120.258 229.942 114.803 227.058 118.665C220.511 127.434 204.951 162.025 203 164.638L226.621 174.085Z" fill="#2F3676"/>
<path fill-rule="evenodd" clip-rule="evenodd" d="M275.483 164.955C271.91 159.816 258.911 142.526 251.83 135.372C249.796 133.317 247.811 131.343 245.933 129.505C240.352 124.039 229.238 133.225 234.809 138.203C248.682 150.6 268.924 167.336 270.616 168.828C272.986 170.919 277.729 168.185 275.483 164.955Z" fill="#B28B67"/>
<path fill-rule="evenodd" clip-rule="evenodd" d="M272.501 163.686C273.248 162.796 274.589 162.565 275.459 163.348C276.104 163.927 276.757 164.581 277.05 165.082C277.726 166.237 278.633 168.674 278.633 168.674C277.274 169.447 254.21 182.575 254.21 182.575C254.21 182.575 251.441 180.014 253.348 178.599C255.254 177.184 256.494 176.213 256.494 176.213L264.622 165.173C264.953 164.723 265.595 164.633 266.044 164.974L267.385 165.991C267.385 165.991 269.795 165.784 270.982 165.108C271.463 164.835 272.015 164.266 272.501 163.686Z" fill="#E4E4E4"/>
<path fill-rule="evenodd" clip-rule="evenodd" d="M208.285 175.61C209.375 175.208 210.643 175.669 211 176.775C211.265 177.597 211.5 178.487 211.5 179.066C211.5 180.4 211.049 182.958 211.049 182.958C209.48 182.958 182.848 182.958 182.848 182.958C182.848 182.958 181.749 179.375 184.118 179.089C186.486 178.804 188.052 178.574 188.052 178.574L200.698 173.016C201.21 172.791 201.807 173.03 202.023 173.546L202.668 175.09C202.668 175.09 204.861 176.099 206.232 176.099C206.791 176.099 207.565 175.875 208.285 175.61Z" fill="#E4E4E4"/>
<path fill-rule="evenodd" clip-rule="evenodd" d="M251.568 130.832C251.568 130.832 274.441 127.159 282.209 125.808C296.971 123.242 301.275 115.411 298.73 98.3252L271.532 98.3252C266.134 99.8622 226.416 117.337 226.416 117.337C221.652 119.668 222.539 126.542 223.41 128.807C223.463 128.946 247.503 169.508 247.503 169.508L269.752 155.535L251.527 132.479C251.527 132.479 250.805 131.045 251.568 130.832Z" fill="#5C63AB"/>
<path fill-rule="evenodd" clip-rule="evenodd" d="M233.813 103.97L247.977 90.3486L252.682 98.3733L237.953 106.934C234.26 112.669 232.091 115.147 231.446 114.368C230.902 113.711 231.151 112.991 231.381 112.328C231.56 111.811 231.727 111.329 231.497 110.938C230.974 110.045 228.017 110.557 225.232 111.16C222.447 111.764 223.091 110.415 223.683 109.711C226.315 107.617 229.692 105.703 233.813 103.97ZM317.3 123.761C315.835 120.831 310.845 92.2697 310.845 92.2697L300.397 92.3102C300.397 92.3102 310.074 123.108 310.845 124.992C311.847 127.44 310.145 130.997 308.991 133.409C308.813 133.782 308.647 134.128 308.507 134.437C310.108 135.144 310.878 134.29 311.689 133.39C312.605 132.373 313.574 131.297 315.855 132.344C316.737 132.748 317.571 133.226 318.386 133.693C321.201 135.306 323.787 136.788 327.305 134.648C327.863 134.309 328.474 133.031 326.997 132.033C323.318 129.546 318.017 125.194 317.3 123.761Z" fill="#B28B67"/>
<path fill-rule="evenodd" clip-rule="evenodd" d="M281.152 49.0468L276.828 48.3157C269.385 66.6474 256.389 83.3041 237.84 98.2858L251.856 115.073C270.402 93.7409 281.834 71.7322 281.152 49.0468Z" fill="#191847"/>
<path fill-rule="evenodd" clip-rule="evenodd" d="M300 102.612H261.5C261.5 102.612 274.879 70.5412 274.879 48.1248L286.493 46.4189C295.62 60.8902 298.198 78.7073 300 102.612Z" fill="#DDE3E9"/>
<path fill-rule="evenodd" clip-rule="evenodd" d="M317.5 118.878C313.29 72.0487 286.748 46.4189 286.748 46.4189L286.739 46.427C286.737 46.4243 286.736 46.4216 286.734 46.4189H285.976C284.615 46.4651 281.831 46.5854 281.831 46.5854L279.025 54.4914C278.58 68.9503 273.824 112.769 273.824 112.769H299.025C298.982 114.778 298.887 116.815 298.735 118.878H317.5Z" fill="#2F3676"/>
<path fill-rule="evenodd" clip-rule="evenodd" d="M299.022 112.963C299.223 104.214 298.435 95.9987 297.122 88.5645C296.435 97.386 294.999 108.001 292.001 112.963H299.022Z" fill="black" fill-opacity="0.1"/>
<path fill-rule="evenodd" clip-rule="evenodd" d="M293.445 97.6819L281.001 91.9785V97.6819H293.445Z" fill="white" fill-opacity="0.2"/>
</svg>
