<svg width="200" height="189" viewBox="0 0 200 189" fill="none" xmlns="http://www.w3.org/2000/svg">
<path d="M57.0816 0.10836C56.2063 0.389776 55.4717 1.406 55.6436 2.14081C55.6749 2.28152 55.3936 2.40659 54.8153 2.53167C53.0491 2.89125 52.1738 3.78241 52.1738 5.17385C52.1738 6.11191 52.6271 7.19067 53.1272 7.45645C53.7681 7.81604 54.8934 7.56589 56.1594 6.78418C57.191 6.15881 57.2848 6.12754 57.0035 6.50276C56.7377 6.86235 56.7221 7.00306 56.8628 7.39392C56.9566 7.64406 57.2223 8.03492 57.4567 8.26943C58.0507 8.91043 58.6759 8.8479 60.5202 7.97238L62.0519 7.23757L62.3489 7.59716C62.5052 7.80041 62.6458 8.12872 62.6458 8.33197C62.6458 9.08241 62.3333 9.41073 60.8172 10.1924C58.8009 11.2399 55.4092 13.2411 51.7831 15.5237C45.0622 19.7762 42.2801 21.2302 39.5292 21.9338C38.2788 22.2621 38.3101 22.1683 38.5914 23.888L38.779 24.9668L39.3416 24.873C42.6396 24.2789 46.6252 22.4028 52.6271 18.6506C58.3476 15.0547 62.0363 12.9441 64.5214 11.834C69.2886 9.69215 72.9303 8.87917 76.7753 9.06678C80.7922 9.28566 84.0432 10.4426 87.81 13.0066C88.7634 13.6476 89.5762 14.1792 89.6231 14.1792C89.67 14.1792 90.1232 13.8196 90.6234 13.3662L91.5456 12.5688L90.3108 11.5839C86.8097 8.83226 83.5587 7.25321 79.6668 6.40896C77.6662 5.98683 72.9929 6.0181 70.7734 6.50276C69.4292 6.78418 65.5843 7.98802 64.4745 8.47268C64.2401 8.56648 64.2245 8.53521 64.3651 8.15999C64.7403 7.19067 64.412 5.17385 63.6462 3.57916C63.0366 2.32842 61.7393 1.01515 60.614 0.514851C59.5824 0.0458241 57.91 -0.141787 57.0816 0.10836Z" fill="#481CA4"/>
<path d="M10.8314 1.49963C6.78328 2.15627 3.42285 4.64211 1.6723 8.31616C0.828287 10.0672 0.546948 11.3023 0.531319 13.2409C0.515689 17.9156 3.17277 21.8867 8.37754 24.9666C9.33096 25.5295 12.9571 27.2023 13.0352 27.1085C13.0509 27.0929 12.9571 26.3581 12.8164 25.4982L12.582 23.9035L11.4879 23.3876C8.94021 22.1994 6.51758 20.2138 5.26718 18.3064C3.37596 15.3985 3.31344 11.8808 5.07962 8.87899C5.76734 7.73769 7.39285 6.15864 8.53383 5.53327C9.53415 4.98607 11.4879 4.48577 12.582 4.48577C13.848 4.48577 15.411 4.89226 16.7239 5.56453L17.8962 6.15864L19.0059 5.23622C19.6311 4.72029 20.1312 4.25126 20.1312 4.18872C20.1312 3.82913 16.5676 2.09373 15.0984 1.74978C13.848 1.45273 11.8474 1.34329 10.8314 1.49963Z" fill="#481CA4"/>
<path d="M30.1513 2.23425C25.5561 3.03159 20.8359 5.68941 17.6943 9.26965C16.6784 10.4266 14.9122 12.7717 15.0528 12.7717C15.0997 12.7717 16.0375 12.5528 17.1316 12.2871C18.7884 11.8806 19.1635 11.7242 19.4292 11.3803C21.5705 8.53484 24.9622 6.40859 29.0729 5.34546C31.1829 4.79826 34.6371 4.64192 36.8566 5.01714C42.0144 5.86139 46.8285 8.53484 50.8766 12.8186L52.0176 14.0225L53.3461 13.2877C54.0651 12.8655 54.6747 12.4903 54.6747 12.4278C54.6747 12.1776 50.7672 8.3785 49.595 7.50298C46.2345 4.98587 42.9835 3.45372 39.0448 2.50003C37.6537 2.17171 36.9504 2.09354 34.4339 2.04664C32.3083 2.01537 31.0891 2.06227 30.1513 2.23425Z" fill="#481CA4"/>
<path d="M108.52 6.92474C103.925 7.73772 100.471 9.30114 91.8745 14.4448C84.6535 18.7599 82.8717 19.6823 79.3862 20.9174C77.9326 21.4177 77.9326 21.4177 79.1986 20.5109C80.1677 19.8073 81.1367 18.6348 81.4025 17.8374C81.6369 17.1339 81.5119 15.8988 81.1367 15.2578C80.9179 14.8826 79.3237 13.71 79.0267 13.71C78.9798 13.71 78.9798 13.9445 79.0111 14.2103C79.0423 14.5073 78.9329 14.3041 78.761 13.7413C78.2296 11.9433 77.3856 11.4274 75.1974 11.5681C73.7907 11.6463 73.228 11.8964 72.931 12.5374C72.6653 13.1159 73.0248 13.7569 74.1971 14.8357C74.7597 15.3516 75.0723 15.6955 74.8848 15.6017C74.6972 15.5079 74.369 15.4298 74.1345 15.4298C73.6031 15.4298 73.2749 16.1802 73.2749 17.4466C73.2749 18.2283 73.3374 18.4628 73.6813 18.8693C73.9157 19.1351 74.4003 19.4947 74.7754 19.6823C75.1974 19.8699 75.4631 20.1044 75.4631 20.2607C75.4631 20.6672 74.7128 21.3082 73.6813 21.7773C72.8373 22.1681 72.6497 22.1838 71.3993 22.1056C67.2886 21.8085 63.1623 20.0575 59.2705 16.9775L58.3171 16.2271L57.2699 16.9306L56.207 17.6498L56.8791 18.2127C60.7553 21.5584 64.8973 23.7315 69.0548 24.6071C71.0086 25.0135 74.5565 24.9666 76.6666 24.5133C80.8554 23.6377 84.5128 21.9649 90.9367 17.9938C101.252 11.6463 104.41 10.0672 109.021 9.00409C111.021 8.53506 114.772 8.42562 116.82 8.76958C119.102 9.16043 122.54 10.3486 122.712 10.802C122.775 10.9427 122.634 11.4118 122.431 11.8652C121.743 13.3348 122.025 15.4298 122.994 16.1177C123.728 16.6336 125.635 16.1958 125.635 15.5079C125.635 15.0233 125.916 15.2891 126.088 15.9301C126.323 16.8837 126.807 17.6029 127.37 17.8374L127.87 18.0407L126.792 18.369C116.445 21.4802 108.989 22.0118 103.097 20.0575C100.799 19.2914 98.8142 18.2596 96.9698 16.8525L96.0477 16.1489L95.6726 16.618C94.7035 17.7905 94.5003 18.1032 94.6254 18.2283C95.0474 18.5879 96.751 19.8073 97.4231 20.2295C101.925 22.9811 106.176 24.0286 112.1 23.8253C117.914 23.6221 122.009 22.6371 134.779 18.3846C147.986 13.9758 151.721 13.0534 157.52 12.8188C160.724 12.6938 161.412 12.897 162.053 14.179C162.584 15.2421 162.584 15.3516 161.959 15.5705C160.599 16.0551 159.505 17.5717 159.583 18.838C159.63 19.5572 159.646 19.5728 160.302 19.7917C160.927 19.9793 161.021 19.9793 161.74 19.6197C162.178 19.4009 162.522 19.2445 162.522 19.2758C162.522 19.2914 162.272 19.6666 161.975 20.12C161.24 21.1988 161.224 21.9961 161.897 22.6215C162.959 23.6065 165.21 23.8566 166.054 23.0749C166.664 22.5277 166.898 21.8242 166.898 20.636C166.898 19.823 166.945 19.6354 167.086 19.7761C167.195 19.8855 167.648 19.9637 168.102 19.9637C169.008 19.9637 169.243 19.7448 169.243 18.8693C169.243 18.1658 168.899 17.6029 167.961 16.7587C166.867 15.7737 165.804 15.2734 164.741 15.2734H163.928L163.522 14.3823C163.319 13.882 163.022 13.366 162.881 13.2097C162.647 12.9439 162.678 12.9283 163.475 12.9283C164.835 12.9283 168.821 13.366 171.399 13.7882C174.697 14.351 178.558 15.3516 182.45 16.6805C191.39 19.7448 192.641 20.0731 194.954 19.9168C197.736 19.7448 199.627 18.3377 199.971 16.2271C200.19 14.82 199.174 13.4286 197.439 12.7719C196.235 12.3185 193.156 12.1153 193.156 12.4905C193.156 12.6781 193.453 12.7719 194.329 12.9126C196.439 13.2253 197.892 13.9601 198.471 15.0076C199.643 17.0714 196.595 19.01 193.156 18.4159C191.765 18.1658 190.749 17.8218 186.076 16.0395C180.215 13.7882 177.183 12.8345 173.15 12.0059C166.414 10.6144 158.427 10.2236 152.909 11.0365C148.002 11.7713 143.75 12.9126 132.903 16.446C129.996 17.384 129.214 17.5717 130.011 17.1495C130.512 16.8837 130.949 16.0551 130.949 15.3829C130.949 14.5542 130.605 13.8351 129.793 12.9595C128.996 12.0997 128.949 11.9902 129.371 11.9902C129.543 11.9902 129.855 11.7713 130.058 11.4899C130.387 11.0834 130.418 10.9271 130.293 10.5988C129.886 9.48875 128.699 8.86338 126.823 8.75394C125.307 8.66014 124.416 8.86338 123.713 9.48875L123.197 9.94214L121.54 9.08226C119.508 8.0504 117.132 7.23742 115.163 6.9091C113.35 6.62769 110.208 6.62769 108.52 6.92474Z" fill="#481CA4"/>
<path d="M23.305 8.79924L22.3203 9.67476L23.1956 10.7848C25.3213 13.5051 25.9308 15.5845 26.5248 22.1978C26.5873 23.042 26.6967 23.7612 26.7279 23.8081C26.7748 23.855 27.4626 23.7612 28.2597 23.6205L29.6976 23.3547L29.5882 22.0102C29.1975 16.7571 28.2909 13.3175 26.6185 10.7223C25.8527 9.54969 24.5554 7.92373 24.3678 7.92373C24.3209 7.92373 23.8364 8.33022 23.305 8.79924Z" fill="#481CA4"/>
<path d="M22.0084 12.9437C16.9287 13.2876 11.4269 15.6484 8.44162 18.744L7.75391 19.4475L8.95741 20.4325C10.286 21.5113 10.0515 21.5269 11.4582 20.2918C13.4901 18.5095 16.4285 16.9304 18.9918 16.2581C20.1328 15.9611 21.0706 15.836 22.6805 15.7891C23.8527 15.7422 24.8218 15.6797 24.8218 15.6484C24.8218 15.4921 23.8527 12.9906 23.7589 12.9281C23.6964 12.8812 22.9149 12.8812 22.0084 12.9437Z" fill="#481CA4"/>
<path d="M28.6195 13.1787C28.682 13.3507 28.8226 13.9292 28.9633 14.492L29.2134 15.5239L30.4013 16.0554C32.5426 17.0091 34.043 18.9165 34.6526 21.418C35.059 23.0908 35.0121 27.4997 34.5588 29.2976C34.4807 29.6572 34.5119 29.6572 35.8092 29.6572C36.9502 29.6572 37.1534 29.6103 37.2315 29.3758C37.4816 28.5316 37.6692 25.5767 37.6067 23.4348C37.5129 20.6519 37.1846 19.2761 36.1531 17.5407C34.8871 15.3988 32.0268 13.5383 29.1352 13.0068C28.6038 12.8973 28.5413 12.913 28.6195 13.1787Z" fill="#481CA4"/>
<path d="M15.8335 18.4776L13.9579 19.3219L13.7547 20.385C13.489 21.7921 13.5984 25.3098 13.9579 26.6856C15.2552 31.5791 18.7875 34.4245 23.9767 34.7685L25.3834 34.8623L25.6178 33.5178C25.8835 32.0012 25.8835 32.0012 24.8363 32.0012C23.9923 32.0012 22.0229 31.4697 21.0539 30.9694C19.2564 30.0626 17.8185 28.2178 17.2245 26.0602C16.7713 24.4655 16.8494 21.1198 17.3652 19.1812C17.584 18.3682 17.756 17.6959 17.7403 17.6803C17.7247 17.6646 16.865 18.0242 15.8335 18.4776Z" fill="#481CA4"/>
<path d="M3.73643 24.3725C2.95494 26.0298 2.40789 27.7026 2.14218 29.1879C1.8921 30.6262 1.8921 33.4717 2.15781 34.738C2.97057 38.7091 5.31505 42.946 9.37883 47.8395C10.0197 48.6212 10.1291 48.8557 10.1291 49.4342C10.1291 49.9345 10.0197 50.2316 9.73832 50.5755C9.0506 51.4041 8.33163 51.5761 5.1275 51.6855C2.34537 51.7793 2.2047 51.795 1.50135 52.2015C0.282222 52.9363 -0.155416 53.7024 0.0477729 54.7655C0.141552 55.3283 0.157182 55.3283 0.751119 55.2501L1.34506 55.172L1.11061 55.7348C0.719859 56.6729 0.57919 57.9549 0.766749 58.8617C1.06372 60.3156 2.42352 61.7071 3.5645 61.7071C4.75238 61.7071 5.19001 60.7378 5.09624 58.3145C5.04935 56.7667 5.15875 56.3289 5.33068 57.392C5.56513 58.8617 6.37789 59.1118 7.55013 58.0799C8.81615 56.9699 8.98808 56.0631 8.33163 54.1714C8.11281 53.5616 7.94088 52.9988 7.94088 52.9363C7.94088 52.8737 8.17533 52.7643 8.45667 52.7174C9.61328 52.4516 10.7855 51.5448 11.0825 50.6537L11.2544 50.1378L13.0519 52.3422C19.0069 59.6434 21.5233 64.2086 22.6486 69.6805C22.9456 71.1345 23.0081 71.9631 23.0081 74.0581C23.0081 75.4808 22.9143 77.1693 22.8049 77.8104C21.8984 83.1573 19.929 87.8475 16.1622 93.6635L15.0681 95.3676L15.5214 96.6652C15.7715 97.3844 16.0215 97.9785 16.0684 97.9785C16.1153 97.9785 16.678 97.2124 17.3345 96.29C22.6486 88.8325 25.3526 82.3755 25.9465 75.7466C26.3998 70.6186 25.0713 65.131 22.1172 59.9091C20.5386 57.1106 18.5692 54.3434 15.1463 50.0752C9.78521 43.4307 8.14407 41.1012 6.84679 38.3652C5.90899 36.3796 5.50261 35.1758 5.26816 33.5342C4.92431 31.1578 5.33068 28.5312 6.40915 26.1861L6.89368 25.1386L6.36226 24.7008C6.08092 24.4663 5.51824 23.9973 5.09624 23.669L4.346 23.0592L3.73643 24.3725Z" fill="#481CA4"/>
<path d="M32.7155 23.5122C29.7614 24.544 24.541 25.2788 20.1334 25.2788H18.3047L18.5704 26.4827L18.8361 27.7021L21.7902 27.6865C23.6501 27.6865 25.4944 27.5771 26.7761 27.4051C28.9799 27.108 32.0746 26.4983 33.0437 26.1544L33.6533 25.9511L33.5907 24.9818C33.5595 24.4502 33.497 23.8405 33.4344 23.6529C33.3407 23.3089 33.325 23.2933 32.7155 23.5122Z" fill="#481CA4"/>
<path d="M27.8371 28.2961L26.8525 28.4525V31.1415C26.8525 39.928 25.0706 44.7121 19.8659 49.9652L17.7871 52.0602L18.3342 52.8575C19.3814 54.3428 19.2876 54.2802 19.694 53.9988C19.8971 53.8581 20.6318 53.2327 21.3507 52.5761C25.5552 48.777 27.8528 44.9309 28.8687 39.9436C29.3376 37.7079 29.5095 35.8474 29.619 31.7982L29.7127 28.0929L29.2595 28.1085C29.0094 28.1241 28.3686 28.2023 27.8371 28.2961Z" fill="#481CA4"/>
<path d="M35.8421 30.5473C34.8105 30.6723 32.0284 31.2352 31.2625 31.4541L30.4498 31.7042V32.9393C30.4498 34.7372 30.3716 34.6747 32.0597 34.2526C34.201 33.7054 36.436 33.4083 38.4523 33.4083C42.0628 33.4083 44.4073 34.4558 45.4076 36.5039C46.2829 38.3019 45.8296 40.819 44.3917 42.0072C41.7502 44.1803 37.8427 42.273 36.8737 38.3488C36.7643 37.9266 36.6861 36.926 36.6861 36.0974V34.6122L35.4357 34.706C34.748 34.7529 34.1384 34.8311 34.0915 34.878C34.029 34.9249 33.9978 35.8004 33.9978 36.801C33.9978 38.2706 34.0759 38.8803 34.3573 39.7402C35.4357 43.1641 37.8584 45.4311 40.9843 45.947C44.4386 46.5255 47.9553 44.196 48.8306 40.7564C49.1744 39.4119 49.065 37.2544 48.5961 36.0818C47.4239 33.1738 44.673 31.2195 40.8906 30.5942C39.9528 30.4535 36.858 30.4222 35.8421 30.5473Z" fill="#481CA4"/>
<path d="M13.1612 55.9532C9.19123 60.0806 6.90927 64.8647 6.20592 70.5243C5.95584 72.6349 6.09651 77.0282 6.51852 79.4515C7.48757 85.0329 9.03493 89.6762 13.4269 100.136C17.0531 108.766 18.0534 111.502 18.8193 114.816C19.5382 118.021 19.507 121.914 18.7255 125.651C17.9284 129.45 16.8186 132.295 13.7708 138.393C10.6761 144.568 9.91021 146.429 9.11308 149.759C7.6595 155.872 8.48789 162.813 11.5826 170.537C12.0515 171.693 13.2394 174.383 14.2241 176.54C15.2244 178.682 16.1934 180.933 16.381 181.527C17.0687 183.607 16.7874 185.186 15.537 186.28C13.7552 187.844 11.3794 186.202 11.3794 183.419C11.3794 183.028 11.3169 182.872 11.1762 182.919C11.0512 182.966 10.9887 183.403 10.9887 184.451C11.0043 185.639 11.0668 186.046 11.3325 186.546C12.2078 188.203 13.8489 188.75 15.537 187.969C17.3969 187.109 18.3191 184.904 17.944 182.247C17.6939 180.496 17.1781 179.026 15.115 174.367C11.3638 165.909 10.301 161.562 10.4885 155.34C10.5667 152.276 10.9887 149.587 11.2856 150.118C11.6451 150.728 12.8799 151.963 13.4426 152.244C13.8021 152.432 14.0365 152.667 14.0365 152.839C14.0365 152.995 13.8177 153.745 13.552 154.511C12.7236 156.857 12.9112 157.763 14.3491 158.373L15.0993 158.686L14.943 159.249C14.1459 162.125 17.3032 163.329 19.4288 160.953C20.0228 160.312 20.7574 158.92 20.7574 158.451C20.7574 158.311 20.9449 157.826 21.1794 157.372C21.9765 155.762 21.7733 154.074 20.6323 152.964C19.8665 152.213 19.4132 152.072 17.8815 152.072C14.8336 152.072 12.536 150.79 11.9265 148.727C11.692 147.976 11.7076 147.945 12.2547 146.538C12.9424 144.818 13.0987 144.49 15.4588 140.034C17.7877 135.61 18.7255 133.515 19.6633 130.654C20.9293 126.776 21.5389 123.008 21.5389 118.944C21.5389 113.597 20.4135 109.782 15.2869 97.5872C10.9262 87.2373 9.4882 82.6565 8.81611 76.9656L8.72234 76.1839L9.20686 76.9187C12.4266 81.7966 21.3513 79.5922 21.4451 73.9169C21.4607 72.5255 21.0074 71.8219 19.8352 71.478C19.4757 71.3686 19.4757 71.3842 19.5851 72.119C19.7102 73.0727 19.4913 72.8851 19.1319 71.775C18.3973 69.4924 16.928 68.4137 15.0681 68.7576C13.5989 69.0234 12.9424 69.6801 12.9424 70.8683C12.9424 71.3529 13.0675 71.5718 13.6926 72.1815L14.4273 72.932L13.9271 72.9163C13.0675 72.8851 12.4735 73.745 12.4735 75.027C12.4735 75.6367 12.5517 75.7618 13.4269 76.5904C14.4741 77.6066 14.5523 77.9662 13.677 77.9662C12.7705 77.9662 11.5513 77.5128 10.8949 76.9187C9.12871 75.3084 8.48789 71.5718 9.41005 68.2104C10.4573 64.3332 12.2078 61.1907 15.0993 57.9544L16.0528 56.8913L15.0681 56.0157C14.521 55.5311 14.0365 55.1402 14.0052 55.1402C13.974 55.1402 13.5989 55.5154 13.1612 55.9532ZM15.3807 157.701L15.1619 158.404L15.1462 157.685C15.1306 156.95 15.24 156.653 15.4745 156.888C15.537 156.95 15.5057 157.326 15.3807 157.701Z" fill="#481CA4"/>
<path d="M11.3635 99.5723C10.6602 100.714 7.76866 106.748 7.22161 108.218C6.25255 110.86 6.0181 112.314 6.00247 115.879C5.98685 120.006 6.31507 121.351 7.97184 123.883L8.59704 124.868L8.33133 125.869C7.54984 128.714 8.83149 130.731 11.5355 130.935C12.1138 130.966 12.8484 130.966 13.161 130.903C13.8487 130.778 14.5833 130.168 14.974 129.418C15.1929 128.98 15.4117 128.793 15.8806 128.652C16.5683 128.449 17.8499 127.386 18.1625 126.76C19.1003 124.9 17.8343 122.43 16.115 122.758C15.7712 122.82 15.3335 123.102 14.9115 123.524L14.2394 124.196L13.9425 123.665C13.2235 122.32 11.1291 122.304 9.47232 123.618L8.89401 124.087L8.44074 122.867C7.5811 120.647 7.54984 120.46 7.56547 117.13C7.5811 115.41 7.65925 113.549 7.76866 112.986C8.28444 110.188 10.0819 106.045 12.1138 103.012L13.0985 101.558L12.4733 100.323C12.1294 99.6348 11.8168 99.072 11.7699 99.072C11.723 99.072 11.5511 99.3065 11.3635 99.5723ZM13.5674 125.087C13.5674 125.119 13.4423 125.244 13.3016 125.353C13.0516 125.556 13.0359 125.541 13.2391 125.291C13.4423 125.04 13.5674 124.962 13.5674 125.087Z" fill="#481CA4"/>
</svg>
