<svg width="180" height="32" viewBox="0 0 180 32" fill="none" xmlns="http://www.w3.org/2000/svg">
<path d="M165.727 2.23096C167.273 2.50769 169.016 3.0774 170.742 3.89129C172.467 4.70517 172.471 4.66778 173.215 5.20723C174.27 5.97095 174.93 6.33848 175.819 7.29012L175.858 7.33207C176.831 8.37307 177.229 8.7993 177.902 9.89373C178.714 11.2128 179.053 12.0456 179.464 13.5388C179.899 15.1195 180.052 16.0664 179.985 17.7046C179.935 18.9201 179.766 19.6051 179.479 20.7699L179.464 20.8289C179.156 22.0776 179.036 22.8228 178.423 23.9532C177.802 25.0977 177.219 25.5964 176.34 26.5569C175.757 27.1932 174.778 28.119 174.778 28.119C174.778 28.119 173.562 29.151 172.695 29.6812C171.919 30.1554 170.797 30.7226 170.797 30.7226C170.797 30.7226 169.852 31.0643 169.235 31.2434C163.7 32.8482 156.853 30.5535 154.525 30.0652C149.331 29.0071 145.326 26.6143 141.369 22.2356C140.685 21.4868 140.034 20.7218 139.887 20.5102C139.594 20.087 139.529 20.1846 141.076 19.094L141.906 18.5243L144.088 20.6892C149.559 26.1097 154.541 27.9654 163.692 27.9654C163.692 27.9654 165.408 28.1082 166.493 27.9654C167.733 27.802 168.429 27.5901 169.57 27.0776C170.908 26.4768 171.572 25.9379 172.695 24.9947C173.576 24.2548 174.149 23.8753 174.778 22.9118C175.376 21.9945 175.51 21.3587 175.819 20.3082C176.112 19.3135 176.239 18.7365 176.34 17.7046C176.439 16.6926 176.525 16.1007 176.34 15.101C176.14 14.0242 175.298 12.4973 175.298 12.4973C175.298 12.4973 174.509 10.7931 173.736 9.89373C172.888 8.90612 172.24 8.49615 171.133 7.81084C170.287 7.28731 171.295 7.79794 168.853 6.67478C166.411 5.55162 163.675 5.1284 161.2 5.4865C159.491 5.73067 158.237 6.15389 156.169 7.13055C153.32 8.4816 150.894 10.1908 143.974 15.774C139.529 19.3388 136.647 21.3898 133.732 23.0339C128.294 26.1103 122.579 27.494 117.238 27.0219C110.335 26.4033 103.61 23.5873 95.8434 18.0529C94.8828 17.3692 94.085 16.7832 94.085 16.7344C94.085 16.6856 94.7037 16.4251 95.4527 16.1647L96.8041 15.6926L98.5788 16.8321C104.636 20.755 109.52 22.806 115.089 23.7501C115.757 23.864 117.515 23.9617 118.997 23.9617C121.179 23.9617 122.042 23.8966 123.556 23.5873C129.255 22.4153 134.009 19.7946 141.613 13.5928L143.908 11.7209L143.371 11.5418C142.443 11.2325 141.499 10.0117 141.222 8.80716C141.173 8.51416 141.059 8.26999 140.994 8.26999C140.929 8.26999 140.343 8.44905 139.708 8.67693C137.738 9.3606 136.793 9.18154 135.637 7.86305C134.563 6.64222 134.823 5.79578 136.354 5.55162C137.461 5.37256 137.005 5.25862 135.393 5.30745C132.869 5.40512 131.86 4.94934 131.86 3.71224C131.86 2.52396 133.309 1.1078 134.823 0.798527C135.767 0.603195 137.103 0.749694 138.079 1.15664L138.666 1.4008L138.584 0.782249C138.503 0.163697 138.503 0.147419 139.089 0.0497529C140.196 -0.161857 140.994 0.293918 141.759 1.56358C142.183 2.29608 142.199 2.44258 142.297 5.34001C142.411 8.67693 142.59 9.42571 143.453 10.1419C143.811 10.4349 144.12 10.5489 144.641 10.5489C145.244 10.5489 145.488 10.4349 146.302 9.76754C151.398 5.53534 155.811 3.09368 159.946 2.24724C161.265 1.97052 164.229 1.97052 165.727 2.23096Z" fill="#481CA4"/>
<path d="M137.852 13.7066C133.554 9.57205 128.571 7.1955 122.677 6.46301C120.479 6.20256 115.904 6.34906 113.38 6.78856C107.567 7.79778 102.731 9.40927 91.8386 13.9833C82.8508 17.7597 80.0014 18.8015 76.5496 19.5991C73.2118 20.3479 69.1575 20.3153 65.266 19.5014C61.3095 18.6713 58.3461 17.5156 51.9961 14.3414C45.5646 11.1184 43.627 10.3208 40.1589 9.49066C33.7926 7.97683 26.5633 8.83955 18.5198 12.0625C17.315 12.5509 14.5144 13.788 12.2675 14.8135C10.0368 15.8552 7.69218 16.8645 7.07345 17.0598C4.90792 17.776 3.26342 17.483 2.12367 16.1808C0.495445 14.3251 2.20508 11.8509 5.10331 11.8509C5.51036 11.8509 5.67319 11.7858 5.62434 11.6393C5.57549 11.5091 5.11959 11.444 4.02868 11.444C2.79124 11.4603 2.3679 11.5254 1.84687 11.8021C0.120954 12.7136 -0.448923 14.4228 0.365187 16.1808C1.26071 18.1178 3.5565 19.0782 6.32447 18.6876C8.14808 18.4271 9.67861 17.89 14.5307 15.7413C23.3394 11.8346 27.8658 10.7278 34.3461 10.9231C37.5375 11.0045 40.338 11.444 39.7844 11.7533C39.1494 12.1276 37.8631 13.4136 37.57 13.9996C37.3746 14.374 37.1304 14.6181 36.9513 14.6181C36.7885 14.6181 36.0069 14.3902 35.2091 14.1135C32.7668 13.2508 31.8224 13.4461 31.1874 14.9437L30.8618 15.725L30.2756 15.5622C27.2797 14.7321 26.0259 18.0202 28.5008 20.2339C29.1684 20.8525 30.6175 21.6175 31.106 21.6175C31.2525 21.6175 31.7573 21.8129 32.2295 22.057C33.9065 22.8872 35.665 22.6756 36.821 21.4873C37.6026 20.6897 37.7491 20.2177 37.7491 18.6224C37.7491 15.4483 39.0843 13.0555 41.2335 12.4206C42.0151 12.1765 42.0476 12.1928 43.513 12.7625C45.3041 13.4787 45.646 13.6415 50.2864 16.0994C54.8943 18.5248 57.0761 19.5014 60.0557 20.4781C64.0937 21.7966 68.0177 22.4314 72.2511 22.4314C77.8196 22.4314 81.7925 21.2594 94.4926 15.9204C105.271 11.3789 110.042 9.88132 115.969 9.18138L116.783 9.08372L116.018 9.58833C110.938 12.9415 113.233 22.2361 119.144 22.3338C120.593 22.35 121.326 21.878 121.684 20.6572C121.798 20.2828 121.782 20.2828 121.016 20.3967C120.023 20.5269 120.218 20.2991 121.375 19.9247C123.752 19.1596 124.875 17.6295 124.517 15.6925C124.24 14.1624 123.556 13.4787 122.319 13.4787C121.814 13.4787 121.586 13.6089 120.951 14.26L120.17 15.0251L120.186 14.5042C120.218 13.6089 119.323 12.9904 117.988 12.9904C117.353 12.9904 117.223 13.0718 116.36 13.9833C115.301 15.0739 114.927 15.1553 114.927 14.2437C114.927 13.2996 115.399 12.03 116.018 11.3463C117.695 9.50694 121.586 8.83955 125.087 9.79994C129.125 10.8905 132.398 12.7136 135.768 15.725L136.875 16.718L137.787 15.6925C138.292 15.1227 138.699 14.6181 138.699 14.5856C138.699 14.553 138.308 14.1624 137.852 13.7066ZM31.8875 16.018L31.1548 15.7901L31.9038 15.7739C32.6691 15.7576 32.9784 15.8715 32.7342 16.1157C32.6691 16.1808 32.2783 16.1482 31.8875 16.018Z" fill="#481CA4"/>
<path d="M92.4257 11.8348C91.2371 11.1023 84.9521 8.0909 83.4216 7.52118C80.6699 6.51196 79.1557 6.2678 75.4433 6.25152C71.1448 6.23524 69.7446 6.57707 67.1069 8.30251L66.0811 8.95362L65.039 8.6769C62.0757 7.86301 59.9752 9.19778 59.7636 12.0138C59.731 12.6161 59.731 13.3812 59.7961 13.7067C59.9264 14.4229 60.5614 15.188 61.343 15.5949C61.7989 15.8228 61.9942 16.0507 62.1408 16.539C62.3524 17.2552 63.4596 18.59 64.1109 18.9156C66.0485 19.8922 68.6211 18.5737 68.2792 16.7832C68.214 16.4251 67.921 15.9693 67.4813 15.5298L66.7812 14.8299L67.3348 14.5206C68.7351 13.7718 68.7514 11.5906 67.3836 9.86517L66.8952 9.26289L68.1652 8.79084C70.4773 7.89557 70.6727 7.86301 74.1408 7.87929C75.9318 7.89557 77.8694 7.97696 78.4555 8.0909C81.3701 8.62806 85.6848 10.5 88.8436 12.6161L90.3578 13.6416L91.6441 12.9905C92.3605 12.6324 92.9467 12.3068 92.9467 12.258C92.9467 12.2092 92.7025 12.0301 92.4257 11.8348ZM65.8531 14.1299C65.8206 14.1299 65.6903 13.9997 65.5763 13.8532C65.3647 13.5928 65.3809 13.5765 65.6415 13.7881C65.902 13.9997 65.9834 14.1299 65.8531 14.1299Z" fill="#481CA4"/>
</svg>
