<svg width="62" height="62" viewBox="0 0 62 62" fill="none" xmlns="http://www.w3.org/2000/svg">
<path d="M30.8301 38.9277V54.9277M30.8301 57.9277V61.9277" stroke="#481CA4" stroke-width="2"/>
<path d="M34.8301 37.9277L42.8301 51.7841M44.3301 54.3822L46.3301 57.8463" stroke="#481CA4" stroke-width="2"/>
<path d="M37.7939 35.0615L51.6504 43.0615M54.2484 44.5615L57.7125 46.5615" stroke="#481CA4" stroke-width="2"/>
<path d="M38.9277 31.0977L54.9277 31.0977M57.9277 31.0977L61.9277 31.0977" stroke="#481CA4" stroke-width="2"/>
<path d="M37.9277 27.0977L51.7841 19.0977M54.3822 17.5977L57.8463 15.5977" stroke="#481CA4" stroke-width="2"/>
<path d="M35.0615 24.1338L43.0615 10.2774M44.5615 7.67931L46.5615 4.21521" stroke="#481CA4" stroke-width="2"/>
<path d="M31.0977 23L31.0977 7M31.0977 4L31.0977 2.74181e-06" stroke="#481CA4" stroke-width="2"/>
<path d="M27.0977 24L19.0977 10.1436M17.5977 7.54552L15.5977 4.08142" stroke="#481CA4" stroke-width="2"/>
<path d="M24.1338 26.8662L10.2774 18.8662M7.67931 17.3662L4.21521 15.3662" stroke="#481CA4" stroke-width="2"/>
<path d="M23 30.8301L7 30.8301M4 30.8301L2.74181e-06 30.8301" stroke="#481CA4" stroke-width="2"/>
<path d="M24 34.8301L10.1436 42.8301M7.54552 44.3301L4.08142 46.3301" stroke="#481CA4" stroke-width="2"/>
<path d="M26.8662 37.7939L18.8662 51.6504M17.3662 54.2484L15.3662 57.7125" stroke="#481CA4" stroke-width="2"/>
</svg>
